<?xml version="1.0" encoding="utf-8"?>
<svg version="1.1" xmlns:xlink="http://www.w3.org/1999/xlink" width="28px" height="24px" xmlns="http://www.w3.org/2000/svg">
  <g transform="matrix(1 0 0 1 -20 -287 )">
    <path d="M 22.7301136363636 11.0625  C 22.8494318181818 11.1647727272727  22.9090909090909 11.2954545454545  22.9090909090909 11.4545454545455  L 22.9090909090909 12.5454545454545  C 22.9090909090909 12.7045454545455  22.8494318181818 12.8352272727273  22.7301136363636 12.9375  C 22.6107954545455 13.0397727272727  22.4583333333333 13.0909090909091  22.2727272727273 13  L 5.72727272727273 13  C 5.54166666666667 13.0909090909091  5.38920454545455 13.0397727272727  5.26988636363636 12.9375  C 5.15056818181818 12.8352272727273  5.09090909090909 12.7045454545455  5.09090909090909 12.5454545454545  L 5.09090909090909 11.4545454545455  C 5.09090909090909 11.2954545454545  5.15056818181818 11.1647727272727  5.26988636363636 11.0625  C 5.38920454545455 10.9602272727273  5.54166666666667 10.9090909090909  5.72727272727273 11  L 22.2727272727273 11  C 22.4583333333333 10.9090909090909  22.6107954545455 10.9602272727273  22.7301136363636 11.0625  Z M 24.5198863636364 21.0170454545455  C 25.1429924242424 20.4829545454545  25.4545454545455 19.8409090909091  25 19.0909090909091  L 25 4.90909090909091  C 25.4545454545455 4.15909090909091  25.1429924242424 3.51704545454545  24.5198863636364 2.98295454545455  C 23.8967803030303 2.44886363636363  23.1477272727273 2.18181818181818  22.2727272727273 2.18181818181818  L 5.72727272727273 2.18181818181818  C 4.85227272727273 2.18181818181818  4.1032196969697 2.44886363636363  3.48011363636364 2.98295454545455  C 2.85700757575758 3.51704545454545  2.54545454545455 4.15909090909091  3 4.90909090909091  L 3 19.0909090909091  C 2.54545454545455 19.8409090909091  2.85700757575758 20.4829545454545  3.48011363636364 21.0170454545455  C 4.1032196969697 21.5511363636364  4.85227272727273 21.8181818181818  5.72727272727273 21.8181818181818  L 22.2727272727273 21.8181818181818  C 23.1477272727273 21.8181818181818  23.8967803030303 21.5511363636364  24.5198863636364 21.0170454545455  Z M 26.3196022727273 1.44034090909091  C 27.4398674242424 2.40056818181818  28 3.55681818181818  28 4.90909090909091  L 28 19.0909090909091  C 28 20.4431818181818  27.4398674242424 21.5994318181818  26.3196022727273 22.5596590909091  C 25.1993371212121 23.5198863636364  23.8503787878788 24  22.2727272727273 24  L 5.72727272727273 24  C 4.14962121212121 24  2.80066287878788 23.5198863636364  1.68039772727273 22.5596590909091  C 0.560132575757576 21.5994318181818  0 20.4431818181818  0 19.0909090909091  L 0 4.90909090909091  C 0 3.55681818181818  0.560132575757576 2.40056818181818  1.68039772727273 1.44034090909091  C 2.80066287878788 0.480113636363634  4.14962121212121 0  5.72727272727273 0  L 22.2727272727273 0  C 23.8503787878788 0  25.1993371212121 0.480113636363634  26.3196022727273 1.44034090909091  Z " fill-rule="nonzero" fill="#000000" stroke="none" transform="matrix(1 0 0 1 20 287 )" />
  </g>
</svg>